<?xml version="1.0" encoding="UTF-8"?>
<svg xmlns="http://www.w3.org/2000/svg" width="42" height="42" viewBox="0 0 42 42" fill="none">
  <g clip-path="url(#clip0_5554_25081)">
    <path d="M18.6928 9.875H18.6811C12.7998 10.8591 8.48836 15.8852 8.47664 21.5791C8.45321 27.8822 13.7136 33.4004 20.2979 33.4004C21.9498 33.4004 23.5198 33.0606 24.9374 32.4514" stroke="white" stroke-width="1.75737" stroke-miterlimit="10"></path>
    <path d="M19.387 5.85938C11.2094 6.67948 5 13.5684 5 21.4766C5 29.8534 11.9709 37.0118 20.6992 37.1758C22.5737 37.1289 24.3663 36.7657 26.0299 36.1331" stroke="white" stroke-width="1.75737" stroke-miterlimit="10"></path>
    <path d="M33.8434 29.8762C35.4601 27.4276 36.3974 24.5338 36.3974 21.4759C36.4091 13.6966 30.3755 6.85458 22.3033 5.84702V3.30469C20.417 5.03863 18.5308 6.77257 16.6328 8.51823C17.324 8.97515 18.0036 9.42035 18.6831 9.87727H18.6948C19.9015 10.6857 21.0965 11.4823 22.3033 12.2907V9.92413C27.8917 10.8731 32.1329 15.7352 32.1329 21.5814C32.1329 23.948 31.4416 26.1623 30.2232 28.0016" stroke="white" stroke-width="1.75737" stroke-miterlimit="10"></path>
    <path d="M29.9167 38.0053C32.6796 38.0053 34.9194 35.7656 34.9194 33.0027C34.9194 30.2398 32.6796 28 29.9167 28C27.1538 28 24.9141 30.2398 24.9141 33.0027C24.9141 35.7656 27.1538 38.0053 29.9167 38.0053Z" stroke="white" stroke-width="1.75737" stroke-miterlimit="10"></path>
    <path d="M29.8589 33.9366C30.9071 33.9366 31.7569 33.0868 31.7569 32.0386C31.7569 30.9904 30.9071 30.1406 29.8589 30.1406C28.8107 30.1406 27.9609 30.9904 27.9609 32.0386C27.9609 33.0868 28.8107 33.9366 29.8589 33.9366Z" stroke="white" stroke-width="1.17158" stroke-miterlimit="10"></path>
    <path d="M26.3555 36.7608C26.3555 36.6671 26.3555 36.5734 26.3555 36.4679C26.3555 35.0386 27.1873 33.8085 28.4057 33.2344" stroke="white" stroke-width="1.17158" stroke-miterlimit="10"></path>
    <path d="M31.3594 33.1953C32.6247 33.746 33.5034 34.9996 33.5034 36.4757C33.5034 36.5226 33.5034 36.5812 33.5034 36.6281" stroke="white" stroke-width="1.17158" stroke-miterlimit="10"></path>
    <path d="M16.644 20.625H14.4062V26.4126H16.644V20.625Z" stroke="white" stroke-width="1.5" stroke-miterlimit="10"></path>
    <path d="M25.4682 16.5547H23.2305V26.4077H25.4682V16.5547Z" stroke="white" stroke-width="1.5" stroke-miterlimit="10"></path>
    <path d="M21.0619 18.7734H18.8242V26.4122H21.0619V18.7734Z" stroke="white" stroke-width="1.5" stroke-miterlimit="10"></path>
    <path d="M14.4062 26.4062H25.466" stroke="white" stroke-width="1.5" stroke-miterlimit="10"></path>
  </g>
  <defs>
    <clipPath id="clip0_5554_25081">
      <rect width="42" height="42" fill="white"></rect>
    </clipPath>
  </defs>
</svg>
