<svg width="42" height="42" viewBox="0 0 42 42" fill="none" xmlns="http://www.w3.org/2000/svg">
<path d="M5.25 25.55C5.25 24.5699 5.25 24.0799 5.44074 23.7055C5.60852 23.3762 5.87623 23.1085 6.20552 22.9407C6.57986 22.75 7.06991 22.75 8.05 22.75H9.45C10.4301 22.75 10.9201 22.75 11.2945 22.9407C11.6238 23.1085 11.8915 23.3762 12.0593 23.7055C12.25 24.0799 12.25 24.5699 12.25 25.55V33.95C12.25 34.9301 12.25 35.4201 12.0593 35.7945C11.8915 36.1238 11.6238 36.3915 11.2945 36.5593C10.9201 36.75 10.4301 36.75 9.45 36.75H8.05C7.06991 36.75 6.57986 36.75 6.20552 36.5593C5.87623 36.3915 5.60852 36.1238 5.44074 35.7945C5.25 35.4201 5.25 34.9301 5.25 33.95V25.55Z" stroke="white" stroke-width="2" stroke-linecap="round" stroke-linejoin="round"/>
<path d="M17.5 8.05C17.5 7.06991 17.5 6.57986 17.6907 6.20552C17.8585 5.87623 18.1262 5.60852 18.4555 5.44074C18.8299 5.25 19.3199 5.25 20.3 5.25H21.7C22.6801 5.25 23.1701 5.25 23.5445 5.44074C23.8738 5.60852 24.1415 5.87623 24.3093 6.20552C24.5 6.57986 24.5 7.06991 24.5 8.05V33.95C24.5 34.9301 24.5 35.4201 24.3093 35.7945C24.1415 36.1238 23.8738 36.3915 23.5445 36.5593C23.1701 36.75 22.6801 36.75 21.7 36.75H20.3C19.3199 36.75 18.8299 36.75 18.4555 36.5593C18.1262 36.3915 17.8585 36.1238 17.6907 35.7945C17.5 35.4201 17.5 34.9301 17.5 33.95V8.05Z" stroke="white" stroke-width="2" stroke-linecap="round" stroke-linejoin="round"/>
<path d="M29.75 18.55C29.75 17.5699 29.75 17.0799 29.9407 16.7055C30.1085 16.3762 30.3762 16.1085 30.7055 15.9407C31.0799 15.75 31.5699 15.75 32.55 15.75H33.95C34.9301 15.75 35.4201 15.75 35.7945 15.9407C36.1238 16.1085 36.3915 16.3762 36.5593 16.7055C36.75 17.0799 36.75 17.5699 36.75 18.55V33.95C36.75 34.9301 36.75 35.4201 36.5593 35.7945C36.3915 36.1238 36.1238 36.3915 35.7945 36.5593C35.4201 36.75 34.9301 36.75 33.95 36.75H32.55C31.5699 36.75 31.0799 36.75 30.7055 36.5593C30.3762 36.3915 30.1085 36.1238 29.9407 35.7945C29.75 35.4201 29.75 34.9301 29.75 33.95V18.55Z" stroke="white" stroke-width="2" stroke-linecap="round" stroke-linejoin="round"/>
</svg>
