<svg width="42" height="42" viewBox="0 0 42 42" fill="none" xmlns="http://www.w3.org/2000/svg">
<path d="M28 36.7501H32.375M29.75 36.7501H13.65C10.7097 36.7501 9.23959 36.7501 8.11655 36.1778C7.1287 35.6745 6.32555 34.8714 5.82222 33.8835C5.25 32.7605 5.25 31.2903 5.25 28.3501V10.075C5.25 8.49053 5.25 7.69831 5.58285 7.23889C5.8732 6.83814 6.31965 6.57905 6.81165 6.52579C7.37567 6.46473 8.06351 6.85778 9.43919 7.64388L9.98581 7.95624C10.4922 8.24558 10.7453 8.39025 11.0142 8.4469C11.2521 8.49703 11.4979 8.49703 11.7358 8.4469C12.0047 8.39025 12.2578 8.24558 12.7642 7.95624L16.1108 6.04388C16.6172 5.75454 16.8703 5.60987 17.1392 5.55322C17.3771 5.50309 17.6229 5.50309 17.8608 5.55322C18.1297 5.60987 18.3828 5.75454 18.8892 6.04388L22.2358 7.95624C22.7421 8.24557 22.9953 8.39025 23.2642 8.4469C23.5021 8.49703 23.7479 8.49703 23.9858 8.4469C24.2547 8.39025 24.5079 8.24557 25.0142 7.95624L25.5608 7.64388C26.9365 6.85778 27.6243 6.46473 28.1883 6.52579C28.6804 6.57905 29.1268 6.83814 29.4172 7.23889C29.75 7.69831 29.75 8.49053 29.75 10.075V24.5001M21 18.3751C20.125 18.1581 18.6989 18.1501 17.5 18.1581C17.0991 18.1608 17.3415 18.1437 16.8 18.1581C15.387 18.2022 14.0029 18.7894 14 20.4532C13.9969 22.2257 15.75 22.7501 17.5 22.7501C19.25 22.7501 21 23.1547 21 25.047C21 26.469 19.5869 27.0921 17.8257 27.2985C16.4257 27.2985 15.75 27.3439 14 27.1251M17.5 28.0001V29.7501M17.5 15.7501V17.5001M29.75 22.7501H36.75V33.2501C36.75 35.1831 35.183 36.7501 33.25 36.7501C31.317 36.7501 29.75 35.1831 29.75 33.2501V22.7501Z" stroke="white" stroke-width="2" stroke-linecap="round" stroke-linejoin="round"/>
</svg>
