<svg width="42" height="42" viewBox="0 0 42 42" fill="none" xmlns="http://www.w3.org/2000/svg">
<path d="M11.5192 9.85454C12.1038 8.81529 12.3961 8.29567 12.8096 7.91745C13.1754 7.58283 13.6081 7.32975 14.0791 7.17496C14.6115 7 15.2077 7 16.4001 7H25.5998C26.7921 7 27.3883 7 27.9207 7.17496C28.3917 7.32975 28.8244 7.58283 29.1902 7.91745C29.6037 8.29567 29.896 8.81529 30.4806 9.85454L35.2056 18.2545C35.7689 19.256 36.0506 19.7567 36.1609 20.2877C36.2586 20.7575 36.2586 21.2425 36.1609 21.7123C36.0506 22.2433 35.7689 22.744 35.2056 23.7455L30.4806 32.1455C29.896 33.1847 29.6037 33.7043 29.1902 34.0826C28.8244 34.4172 28.3917 34.6703 27.9207 34.825C27.3883 35 26.7921 35 25.5998 35H16.4001C15.2077 35 14.6115 35 14.0791 34.825C13.6081 34.6703 13.1754 34.4172 12.8096 34.0826C12.3961 33.7043 12.1038 33.1847 11.5192 32.1455L6.79423 23.7455C6.23091 22.744 5.94925 22.2433 5.83888 21.7123C5.74121 21.2425 5.74121 20.7575 5.83888 20.2877C5.94925 19.7567 6.23091 19.256 6.79423 18.2545L11.5192 9.85454Z" stroke="white" stroke-width="2" stroke-linecap="round" stroke-linejoin="round"/>
<path d="M22.5466 14.0457L26.9778 25.8517L14.1602 23.6903L22.5466 14.0457Z" stroke="white" stroke-width="2" stroke-linecap="round" stroke-linejoin="round"/>
<path d="M15.7362 23.9132C15.5802 24.7594 14.7364 25.3244 13.8515 25.1752C12.9666 25.026 12.3758 24.219 12.5318 23.3728C12.6878 22.5266 13.5317 21.9616 14.4165 22.1108C15.3014 22.26 15.8923 23.067 15.7362 23.9132Z" stroke="white" stroke-width="2" stroke-linecap="round" stroke-linejoin="round"/>
<path d="M28.536 26.1566C28.3799 27.0028 27.5361 27.5678 26.6512 27.4186C25.7664 27.2694 25.1755 26.4625 25.3316 25.6163C25.4876 24.7701 26.3314 24.205 27.2163 24.3542C28.1011 24.5035 28.692 25.3104 28.536 26.1566Z" stroke="white" stroke-width="2" stroke-linecap="round" stroke-linejoin="round"/>
<path d="M24.1894 14.3225C24.0333 15.1687 23.1895 15.7337 22.3046 15.5845C21.4198 15.4353 20.8289 14.6284 20.985 13.7822C21.141 12.936 21.9848 12.371 22.8697 12.5202C23.7545 12.6694 24.3454 13.4763 24.1894 14.3225Z" stroke="white" stroke-width="2" stroke-linecap="round" stroke-linejoin="round"/>
</svg>
