<svg width="42" height="42" viewBox="0 0 42 42" fill="none" xmlns="http://www.w3.org/2000/svg">
<path d="M19.425 36.75H10.85C8.88982 36.75 7.90972 36.75 7.16103 36.3685C6.50247 36.033 5.96703 35.4975 5.63148 34.839C5.25 34.0903 5.25 33.1102 5.25 31.15V10.85C5.25 8.88982 5.25 7.90972 5.63148 7.16103C5.96703 6.50247 6.50247 5.96703 7.16103 5.63148C7.90972 5.25 8.88982 5.25 10.85 5.25H31.15C33.1102 5.25 34.0903 5.25 34.839 5.63148C35.4975 5.96703 36.033 6.50247 36.3685 7.16103C36.75 7.90972 36.75 8.88982 36.75 10.85V15.75M17.5 28V19.25H12.25V28H17.5ZM17.5 28H22.75V14H17.5V28ZM33.25 23.625C33.25 25.0747 32.0747 26.25 30.625 26.25C29.1753 26.25 28 25.0747 28 23.625C28 22.1753 29.1753 21 30.625 21C32.0747 21 33.25 22.1753 33.25 23.625ZM32.4773 31.5H28.7727C27.2662 31.5 25.9287 32.464 25.4523 33.8932L24.5 36.75H36.75L35.7977 33.8932C35.3213 32.464 33.9838 31.5 32.4773 31.5Z" stroke="white" stroke-width="2" stroke-linecap="round" stroke-linejoin="round"/>
</svg>
